<?xml version="1.0" encoding="UTF-8"?><svg xmlns="http://www.w3.org/2000/svg" viewBox="0 0 360 504"><defs><style>.cls-1{font-family:LaBohemienne-Regular, 'La Bohemienne';font-size:74px;}.cls-2{font-family:METROPOLISPERSONALUSE-Regular, 'METROPOLIS PERSONAL USE';font-size:94px;}.cls-3{stroke-dasharray:0 0 0 0 0 0 0 0 0 0 0 0;}.cls-3,.cls-4{fill:none;stroke:#000;stroke-miterlimit:10;}</style></defs><g id="Layer_5"><path class="cls-4" d="M275.87,157.32c12.65,16.26,24.11,33.69,31.46,52.94s10.41,40.51,6.06,60.65"/><path class="cls-4" d="M312.05,224.9c.31-4.44,.62-8.87,.89-12.76-.85-8.34,1.2-16.95,5.7-24.02s11.44-12.56,19.41-14.71c-3.41,4.04-5.46,9.03-7.23,14s-3.33,10.07-5.96,14.65c-2.63,4.58-6.5,8.69-11.6,9.94,5.25-8.31,7.11-18.43,12.51-26.65,1.93-2.94,4.3-5.59,7-7.84,1.32-1.1,2.73-2.12,3.84-3.44"/><path class="cls-4" d="M302.15,226.36c5.61,2.27,10.2,6.93,12.37,12.58"/><path class="cls-4" d="M303.1,226.74c-2.07-1.99-4.16-3.94-6.27-5.88-1.69-1.56-3.44-3.13-5.56-4.03-2.62-1.11-5.56-1.07-8.39-1.37-4.07-.42-8.03-1.55-12.03-2.37s-8.17-1.31-11.86-.56c5.65,3.16,10.67,7.47,16.67,9.89,9.15,3.7,19.53,2.64,29.07,5.17"/><path class="cls-4" d="M259.6,212.46c9.65,3.42,19.5,6.24,29.5,8.46,2.45,.54,4.92,1.05,7.28,1.93s4.61,2.15,6.3,4.01"/><path class="cls-4" d="M290.37,161.39c-.59,5.68-.24,11.46,.85,16.51l1.35,2.97"/><path class="cls-4" d="M290.23,164.04c2.71-1.59,5.55-3.29,7.09-6.03,.87-1.55,1.27-3.31,1.74-5.03,.87-3.15,2.07-6.24,3.89-8.95,1.28-1.9,2.9-3.68,3.46-5.9,.31-1.24,.28-2.54,.23-3.81l-.48-15.17c-1.99,3.73-2.94,8.62-5.19,12.84-1.68,3.14-4.04,5.86-5.93,8.87-4.3,6.87-5.98,15.34-4.59,23.16,2.04-10.79,10.3-19.43,13.41-29.96,1.27-4.29,1.65-8.79,1.95-13.25"/><path class="cls-4" d="M276.33,157.55c-2.74-8.02-7.19-15.45-12.96-21.64"/><path class="cls-4" d="M272.73,148.78c2.49-5.4,7.95-9.24,9.52-14.98,1.42-5.21-.71-10.82,.26-16.13,.54-2.95,2.02-5.8,1.63-8.77-3.05,4.84-7.84,8.43-10.62,13.44-1.96,3.53-2.8,7.6-3,11.63s.22,8.07,.71,11.8c.52,.88,1.03,1.75,1.7,2.52-.7-3.33-.05-6.81,1.02-10.04s2.58-6.31,3.66-9.54c2.09-6.28,2.62-13.23,6.35-18.7"/><path class="cls-4" d="M263.62,137.04c.58-1.63,.34-3.41,.1-5.12l-1.36-9.58c-.43-3-.86-6.02-1.89-8.86-1.43-3.95-3.93-7.4-6.25-10.9s-4.5-7.24-5.14-11.39c-1.2,8.11-.49,16.49,2.07,24.28,2.55,7.79,6.94,14.97,12.41,21.14-2.39-5.52-4.71-11.07-6.95-16.65-3.49-8.68-6.85-17.61-7.32-26.96"/><path class="cls-4" d="M240.33,132.36c-5-3.6-8.3-9.17-10.25-15.01s-2.65-12.02-2.57-18.01c.96,4.29,3.76,7.89,6.4,11.41s5.29,7.29,5.85,11.65c.45,3.56-.52,7.31,.7,10.69"/><path class="cls-4" d="M227.95,102.09c2.92,10.71,7.1,21.08,12.9,30.96,13.25,6.24,25.4,14.81,35.72,25.2"/><path class="cls-4" d="M275.97,156.67c.65,.89,1.17,1.86,1.55,2.89"/><path class="cls-4" d="M240.71,132.83c-1.47-.34-2.77-1.17-4.18-1.71-1.82-.71-3.79-.94-5.73-1.16"/><path class="cls-4" d="M231.46,130.19c-3.26-3.07-6.53-6.15-10.26-8.62-3.25-2.16-6.81-3.84-9.93-6.18-2.79-2.09-5.19-4.67-8.02-6.72-4.53-3.28-10.12-5.09-16.24-5.71,2.34,1.17,4.1,3.27,5.46,5.51s2.38,4.67,3.69,6.94c3.4,5.89,8.77,10.63,15.05,13.26s13.42,3.15,20,1.45"/><path class="cls-4" d="M187.55,103.23c6.68,1.99,11.95,7.01,16.85,11.97s9.9,10.17,16.38,12.7c3.14,1.23,6.52,1.78,9.88,2.07"/><path class="cls-4" d="M256.26,141.79c-6.25,.05-11.41,5.27-17.61,6.03-3.87,.48-7.71-.83-11.56-1.45-5.75-.92-11.65-.3-16.56,.77-.57,.22-1.18-.43-1.14-1.04s.49-1.11,.94-1.53c2.55-2.31,5.96-3.41,9.32-4.2,11.5-2.7,23.67-2.49,35.07,.61"/><path class="cls-4" d="M254.48,141.13c-7.04,1.6-14.35-.19-21.57-.27-7.78-.09-15.57,1.86-22.03,5.64l-.94,.06"/><path class="cls-4" d="M307.18,210.11c-5.36-13.31-15.93-24.43-28.94-30.47-5.98-2.78-12.43-4.52-18.21-7.7-9.21-5.08-16.06-13.46-22.53-21.72,3.94,.01,7.82,1,11.52,2.36,13.76,5.02,25.54,15.26,32.45,28.18"/><path class="cls-4" d="M238.55,150.08l19.04,14.33c5.14,3.87,10.31,7.76,16.05,10.68,3.03,1.54,6.45,3.03,7.96,6.08"/><path class="cls-4" d="M300.26,197.13c-4.77-1.54-9.87,.65-14.87,1-4.54,.32-9.05-.9-13.33-2.45-5.34-1.94-10.45-4.43-15.56-6.91-2.39-1.16-4.91-2.44-5.96-4.38,10.07-1.68,20.59-.59,30.1,3.14,4.99,1.96,9.68,4.61,14.35,7.25l7.72,4.37"/><path class="cls-4" d="M249.96,184.55c17.32,1.56,33.15,11.53,50.52,12.3l.27,.8"/><path class="cls-4" d="M82.36,164.73c-25.18,29.31-36.51,70.03-30.08,108.13"/><path class="cls-4" d="M59.48,204.52c1.31-2.76,3.7-4.98,6.7-5.88,.76-4.94,4.47-9.01,8.76-11.58s9.18-3.91,13.93-5.46c6.58-2.15,13.01-4.78,19.17-7.69-3.63,5.07-7.7,9.92-12.76,13.57-2.3,1.66-4.78,3.06-7.24,4.48-3.41,1.97-6.82,4.01-10.54,5.32s-7.82,1.84-11.61,.74"/><path class="cls-4" d="M66.88,198.29c1.7-3.67,5.49-5.93,9.32-7.21s7.9-1.78,11.71-3.12c7.35-2.59,13.24-8.11,18.9-13.48"/><path class="cls-4" d="M63.95,192.52c-2.88-1.87-3.63-5.71-3.94-9.12-.6-6.56-.53-13.34,1.76-19.52,.87-2.36,2.05-4.59,2.96-6.93,1.61-4.15,2.33-8.62,2.45-13.07,3.35,4.6,4.02,10.7,3.25,16.34s-2.8,11.01-4.43,16.47-2.85,11.2-1.93,16.81"/><path class="cls-4" d="M66.8,144.38c1.89,5.22,1.49,11,.31,16.43s-3.08,10.67-4.17,16.12-1.31,11.26,.83,16.38"/><path class="cls-4" d="M114.83,128.33c-.52,3.36-2.32,6.38-4.41,9.06s-4.49,5.11-6.49,7.85c-2.41,3.29-4.28,7.06-7.38,9.71-2.88,2.47-6.64,3.8-9.3,6.51-1.47,1.5-2.86,3.54-4.87,3.44-1.53-1.67-1.35-4.26-.85-6.47,1.95-8.51,7.53-16.12,15.05-20.54,3.64-2.13,7.65-3.53,11.44-5.39,2.28-1.12,4.47-2.41,6.55-3.85"/><path class="cls-4" d="M82.52,165.06c-.86-2.32,.27-4.89,1.64-6.95,3.86-5.84,9.64-10.1,15.25-14.31s11.3-8.62,14.88-14.65"/><path class="cls-4" d="M50.59,244.2c-4.83-6.46-4.75-15.33-8.2-22.61-1.44-3.04-3.48-5.76-4.85-8.83-2.1-4.69-2.53-9.93-2.94-15.05-.83-10.38-1.65-20.88-.41-30.71,5.01,5.74,8.02,13.03,9.56,20.49s1.67,15.15,1.47,22.77c-.11,4.06-.35,8.27-2.18,11.9"/><path class="cls-4" d="M33.76,168.06c2.21,6.3,4.43,12.67,5.18,19.31,.5,4.46,.33,8.99,1.02,13.43,.64,4.1,2.02,8.09,2.16,12.23,.11,3.21-.48,6.63,1,9.49l-.42-1.5"/><path class="cls-4" d="M46.26,235.32c-5.4-9.78-14.61-17.4-25.22-20.89-2.89-.95-6.23-1.56-8.61,.21,5.35,2.92,8.73,8.44,13.5,12.24,5.84,4.65,13.38,6.46,20.66,8.14"/><path class="cls-4" d="M12.47,214.4c6.87,1.64,12.81,5.83,18.57,9.93l14.18,10.11"/><path class="cls-4" d="M53.96,257.23c3.63-.54,6.99-2.71,8.99-5.79,1.71-2.64,2.41-5.81,2.71-8.93s.23-6.28,.55-9.41c.75-7.22,3.67-14.23,8.42-19.71-11.65,8.05-19.41,20.46-21.71,33.89-.56,3.26-.74,6.85,1.05,8.95,3.06-3.21,5.29-7.21,6.42-11.5,1.1-4.16,1.17-8.53,2.14-12.72,1.39-6,4.67-11.54,9.26-15.64"/><path class="cls-4" d="M53.98,256.26c-1.9,5.21-2.05,10.93-1.25,16.41s2.5,10.79,4.22,16.06c4.2,12.89,8.78,26.17,17.95,35.89,4.87,6.78,9.74,13.55,14.8,20.4,14.28,17.12,33.79,29.82,55.27,35.9,4.08,1.66,8.4,2.74,12.76,3.31,2.29,.52,4.59,1.05,6.89,1.67,6.47,.49,12.89,1.71,19.02,3.72,7.38-.88,14.77-1.75,22.23-2.73,12.94-1.81,25.5-6.3,36.6-13.17,3.77-1.74,7.53-3.48,11.22-5.36,1.45-.86,2.89-1.73,4.63-3.03,9.37-4.61,17.23-12.23,22.14-21.44"/><path class="cls-4" d="M51.83,270.83c1.24,5.8,2.87,11.52,4.87,17.11"/><path class="cls-4" d="M51.95,271.13c-.48-1.39-.53-2.93-.14-4.36"/><path class="cls-4" d="M63.85,307.15c-3.83-2.58-7.78-5.28-10.15-9.24"/><path class="cls-4" d="M54.08,299.14c-2.63-6.41-5.27-12.84-8.72-18.84s-7.74-11.62-13.22-15.85c-2.7-2.08-5.86-4.08-6.83-7.34,2.04,5.12,3.31,10.51,4.92,15.78s3.6,10.52,6.88,14.94c4.41,5.94,10.98,10.09,18.05,12.24"/><path class="cls-4" d="M26.68,259.47c3.31,7.55,8.97,13.77,13.51,20.65,2.54,3.85,4.73,7.92,7.44,11.65,1.97,2.71,4.22,5.23,6.68,7.51"/><path class="cls-4" d="M57.49,303.5c-.39-1.04-1.36-1.78-2.4-2.18s-2.17-.48-3.28-.57c-4.14-.32-8.36-.64-12.41,.26-6.18,1.37-11.52,5.43-17.72,6.72,6.51,.99,13.1,1.42,19.68,1.3,3.24-.06,6.61-.29,9.41-1.91,2.42-1.39,4.48-3.81,7.27-3.88"/><path class="cls-4" d="M23.88,307.81l20.41-2.96c2.4-.35,4.83-.7,7.09-1.57,.89-.34,1.76-.76,2.69-.89s1.99,.06,2.61,.77"/><path class="cls-4" d="M75.44,309.79c3.94-12.5,7.92-25.39,6.8-38.45-.33-3.82-1.09-7.59-1.13-10.86-2.98,4.86-5.96,9.75-8.15,15.01s-3.56,10.96-3.16,16.65c.59,8.27,4.81,16.05,6.81,24.1,1.25,5.05,1.81,10.7,5.52,14.35"/><path class="cls-4" d="M80.41,262.13c-.06,5.29-.7,10.57-1.91,15.72-.71,3-1.6,5.96-2.28,8.97-1.77,7.89-2,16.12-.95,24.12,.05,.04,.1,.09,.1,.15s-.11,.09-.13,.03"/><path class="cls-4" d="M76.09,307.6c-.42,.73-.44,1.6-.46,2.44l-.04,1.91"/><path class="cls-4" d="M74.85,307.96c.18-.05,.36-.09,.53-.16,.04-.02,.09-.04,.11-.08s0-.11-.05-.1c-.11-.02-.23,.09-.22,.2"/><path class="cls-4" d="M83.01,321.57c-1.59-8.48,1.65-17.7,8.18-23.33,2-1.72,4.26-3.12,6.31-4.78,3.78-3.07,6.8-7.07,8.72-11.54-1.39,3.42-.38,7.82-.92,11.91-.39,2.98-1.61,5.79-2.86,8.53-1.9,4.16-4.1,8.51-8.02,10.86-1.9,1.14-4.09,1.72-6.02,2.8-4.68,2.61-7.45,8.28-6.54,13.68,1.45,4.67,2.26,7.7,2.26,7.7"/><path class="cls-4" d="M104.99,285.28c-2.35,6.98-5.33,14.04-10.7,19.08-1.05,.98-2.18,1.88-3.23,2.86-1.69,1.57-3.19,3.34-4.43,5.28-1.55,2.42-2.68,5.1-3.41,7.88l-.29-.54"/><path class="cls-3" d="M157.83,383.98c-9.22-.97-29.28-26.19-31.44-45.18,14.61,11.26,35.37,34.23,31.23,44.78l-.48-.52-30.1-43.09-.06,.02"/><path class="cls-3" d="M89.8,362.44c-8.03-.44-15.89-3.49-22.1-8.59-6.21-5.1-10.75-12.21-12.83-19.21,14.47,4.55,27.91,14.3,34.92,27.79"/><path class="cls-3" d="M97.4,365.98c-12.46,11.27-29.05,17.86-45.88,18,11.96-11.81,28.8-18.5,45.58-17.4l-.13-.17"/><path class="cls-3" d="M55.13,335.22c9,8.35,18.07,16.76,28.5,23.25s22.42,11,34.7,10.78"/><path class="cls-3" d="M89.42,362.57c8.42,4.45,17.99,6.7,27.52,6.48"/><path class="cls-3" d="M53.26,384.39c14.65-10.01,32.01-16.01,49.71-17.2"/><path class="cls-3" d="M96.72,367.17l3.3-.4h-.86"/><path class="cls-3" d="M122.72,371.92c-.67-1.18-20.68-30.6-15.04-44.51,12.22,8.66,11.39,29.17,15.43,44.59"/><path class="cls-3" d="M107.81,327.97c4.7,14,9.39,28.01,14.57,41.85l-.34-.34"/><path class="cls-3" d="M183.84,389.78c1.06,2.75-19.76,10.34-30.71,11.76s-22.58-.52-31.68-6.77c19.97-6.41,62.18-7.34,62.36-5.41-.07,.05-.15,.1-.83,.49-5.42,.67-20.46,3.74-30.72,5.51s-21.01,2.48-30.9-.75l1.73-.28"/><path class="cls-3" d="M196.15,374.84c-18.52-3.15-35.96-12.36-49-25.88,18.8-.17,37.36,10.16,48.66,25.29h-.71"/><path class="cls-3" d="M195.27,374.46c-13.86-11.32-29.87-19.49-47-24.55l.11,.1"/><path class="cls-3" d="M220.69,377.56c-15.09-7.3-28.01-19.03-36.73-33.35,15.98,5.29,29.49,17.64,35.65,32.17l-34.71-31.41"/><path class="cls-3" d="M253.49,369.15c1.65,5.28-7.16,16.86-14.38,22.4-7.22,5.54-15.73,9.1-24.13,12.61,5.69-4.59,10.55-10.2,14.29-16.49,2.72-4.56,8.2-6.49,13.12-8.51s11.09-7.63,11.09-10.35c.03-.01-.14-.18-.11-.19"/><path class="cls-3" d="M253.42,371.06c-.89,5.78-20.96,22.66-36.02,31.03"/><path class="cls-3" d="M194.68,374.34c15.31,5.27,32.43,5.08,47.62-.53"/><path class="cls-3" d="M219.08,375.83c.56,.59,1.12,1.17,1.6,1.81,.08,.13-.05,.33-.2,.3s-.22-.25-.11-.35"/></g><g id="Layer_6_copy"><text class="cls-2" transform="translate(106.12 237.04)"><tspan x="0" y="0">C </tspan></text><text class="cls-2" transform="translate(221.32 325.01)"><tspan x="0" y="0">L</tspan></text><text class="cls-1" transform="translate(172.88 281.88)"><tspan x="0" y="0">&amp;</tspan></text></g></svg>